<?xml version="1.0" encoding="utf-8"?>
<!-- Generator: Adobe Illustrator 28.0.0, SVG Export Plug-In . SVG Version: 6.00 Build 0)  -->
<svg version="1.1" id="Capa_1" xmlns="http://www.w3.org/2000/svg" xmlns:xlink="http://www.w3.org/1999/xlink" x="0px" y="0px"
	 viewBox="0 0 448 184" style="enable-background:new 0 0 448 184;" xml:space="preserve">
<style type="text/css">
	.st0{fill:#FFFFFF;}
</style>
<g>
	<g>
		<path class="st0" d="M100.24,27.02c4.33-1.3,10.29,0,13.73,6.48c3.12-5.35,7.6-7.79,13.79-6.6c1.1,6.18-4.62,13.29-10.48,12.96
			c0.8-2.82,2.14-5.32,3.85-7.77c-0.64,0.23-1.32,0.4-1.92,0.71c-0.72,0.38-1.4,0.87-2.06,1.36c-1.48,1.07-2.26,2.38-2.14,4.36
			c0.19,2.85,0.06,5.71,0.07,8.57c0,0.3,0.03,0.6,0.05,1.04c0.94,0,1.83,0.06,2.71-0.01c6.07-0.52,12.86,5.02,14.32,11.26
			c0.78,3.34,0.85,6.59-0.72,9.76c-1.71,3.47-4.63,5.45-8.32,5.62c-6.22,0.28-12.46,0.15-18.69,0.06c-2.06-0.03-3.9-0.91-5.55-2.42
			c0.69-0.21,1.24-0.35,1.78-0.54c3.24-1.17,5.07-3.64,5.57-6.87c0.36-2.35,0.34-4.83,0.02-7.19c-0.5-3.67-2.78-5.87-6.83-7.18
			c1.21-1.11,2.58-1.78,4.08-2.05c1.55-0.28,3.14-0.38,4.71-0.45c1.54-0.07,3.09-0.02,4.7-0.02c0.03-0.39,0.07-0.68,0.07-0.98
			c0-3.34,0.02-6.68-0.04-10.02c-0.01-0.55-0.28-1.21-0.65-1.62c-1.79-2.05-3.29-2.95-5.22-3.36c1.26,2.45,2.57,5,3.94,7.64
			C105.4,40.44,99.66,33.45,100.24,27.02z M119.13,70.97C119.13,70.97,119.13,70.98,119.13,70.97c1.72,0.01,3.44-0.03,5.16,0.01
			c2.69,0.07,4.83-1.34,5.36-3.99c0.33-1.69,0.36-3.5,0.13-5.21c-0.3-2.29-2.07-3.79-4.21-3.81c-4.06-0.04-8.12-0.02-12.18,0.05
			c-2.26,0.04-3.9,1.24-4.3,3.43c-0.32,1.72-0.39,3.58-0.08,5.3c0.54,3.04,2.19,4.19,5.28,4.2
			C115.9,70.97,117.52,70.97,119.13,70.97z"/>
		<path class="st0" d="M94.17,79.91c5.46,0,10.92,0,16.47,0c0-0.92,0-1.67,0-2.51c3.07,0,6.04,0,9.14,0c0,0.71,0,1.52,0,2.46
			c1.76,0,3.4,0,5.04,0c3.77,0,6.75,2.95,6.75,6.7c0.01,5.68-0.07,11.36,0.03,17.04c0.08,4.51-1.86,6.16-5.77,6.82
			c-4.78,0.8-9.54,1.7-14.29,2.63c-0.99,0.19-1.48-0.03-1.93-0.92c-0.95-1.9-2.26-3.54-4.01-4.78c-0.53-0.38-0.64-0.79-0.64-1.38
			c0.01-4.65-0.23-9.31,0.06-13.94c0.35-5.82-4.15-11.09-10.26-11.76c-0.2-0.02-0.4-0.04-0.61-0.07C94.16,80.1,94.16,80,94.17,79.91
			z M114.86,85.96c0-0.25-0.03-0.73,0.01-1.21c0.07-0.97-0.34-1.4-1.32-1.34c-0.89,0.05-1.78,0.01-2.68,0.03
			c-1.06,0.02-1.38,0.37-1.4,1.45c-0.01,0.72,0,1.44,0,2.16c0.01,2.32,0.06,2.43,2.38,2.25C115.08,89.06,114.78,89.64,114.86,85.96z
			 M114.83,100.47c0-0.65,0.01-1.31,0-1.96c-0.02-0.59-0.32-0.88-0.92-0.83c-1.06,0.09-2.12,0.19-3.18,0.26
			c-0.86,0.05-1.22,0.53-1.22,1.34c0,0.72,0,1.44,0.01,2.16c0.01,2.64,0.01,2.6,2.66,2.24C115.2,103.27,114.83,103.6,114.83,100.47z
			 M114.83,93.41c0-0.55-0.03-1.1,0.01-1.65c0.06-0.87-0.26-1.28-1.19-1.19c-0.99,0.1-1.98,0.13-2.98,0.17
			c-0.82,0.03-1.16,0.51-1.18,1.26c-0.03,1.17-0.02,2.33-0.01,3.5c0.01,0.76,0.38,1.15,1.16,1.07c0.82-0.08,1.64-0.17,2.45-0.24
			c1.71-0.14,1.74-0.16,1.74-1.91C114.83,94.09,114.83,93.75,114.83,93.41z M120.93,99.86c0-0.58-0.01-1.17,0-1.75
			c0.01-0.75-0.33-1.05-1.08-0.98c-1.02,0.1-2.05,0.18-3.07,0.25c-0.71,0.05-1.05,0.44-1.07,1.12c-0.02,0.75,0,1.51,0,2.26
			c-0.01,2.79,0.11,2.49,2.41,2.18C121.3,102.52,120.94,102.86,120.93,99.86z M120.95,86.11c0-0.52,0-1.03,0-1.55
			c0-0.85-0.39-1.26-1.27-1.22c-0.89,0.04-1.79,0.03-2.69,0.01c-0.85-0.02-1.3,0.37-1.32,1.22c-0.02,0.69-0.01,1.38-0.01,2.07
			c0,2.56,0,2.56,2.62,2.36C120.95,88.79,120.95,88.79,120.95,86.11z M115.67,93.22c0,0.14,0,0.27,0,0.41
			c0.01,2.36-0.38,2.52,2.52,2.28c2.81-0.23,2.81,0.26,2.79-3.16c-0.01-2.18,0.32-2.82-2.58-2.47
			C115.68,90.62,115.66,90.5,115.67,93.22z M126.82,99.11c0-0.3,0.01-0.78,0-1.26c-0.02-1.11-0.23-1.33-1.35-1.28
			c-0.89,0.04-1.8,0.05-2.67,0.24c-0.39,0.09-0.89,0.54-0.97,0.91c-0.17,0.79-0.12,1.64-0.12,2.46c0,2.35,0.04,2.42,2.38,2.14
			C126.79,101.99,126.88,102.66,126.82,99.11z M126.79,92.57c0-0.55-0.01-1.1,0-1.65c0.01-0.78-0.39-1.14-1.15-1.11
			c-0.34,0.02-0.68,0.09-1.03,0.1c-3.34,0.09-2.82,0.16-2.87,3.15c-0.04,2.54-0.01,2.47,2.53,2.35
			C127.2,95.28,126.76,95.14,126.79,92.57z M126.78,86.27c0-0.75-0.01-1.2,0-1.64c0.02-0.94-0.38-1.4-1.37-1.33
			c-0.79,0.05-1.58,0.06-2.37,0.01c-0.92-0.05-1.35,0.32-1.31,1.25c0.03,0.65,0.03,1.31,0.02,1.96c-0.03,2.74,0.27,2.21,2.27,2.21
			C126.81,88.73,126.83,88.92,126.78,86.27z"/>
		<path class="st0" d="M130.75,39.4c0.78-1.64,1.53-3.22,2.33-4.9c10.9,4.27,19.87,11.08,26.95,20.3
			c7.68,9.99,11.92,21.33,12.79,34.03c-2.51,0.43-4.87,0.84-7.23,1.23c-4.92,0.82-9.83,1.63-14.75,2.41
			c-0.31,0.05-0.82-0.13-0.98-0.37c-0.79-1.2-1.49-2.46-2.31-3.85c6.29-0.94,12.48-1.87,18.89-2.83
			C162.91,63.48,150.82,48.37,130.75,39.4z"/>
		<path class="st0" d="M52.45,83.12c2.89-21.96,19.25-41.96,41.69-49.2c0.76,1.62,1.53,3.25,2.35,4.99
			c-1.39,0.57-2.71,1.11-4.03,1.66c-13.79,5.78-23.79,15.48-29.99,29.08c-1.83,4.02-3.03,8.26-3.84,12.6
			c-0.13,0.69-0.36,0.91-1.05,0.89C55.9,83.09,54.22,83.12,52.45,83.12z"/>
		<path class="st0" d="M172.64,96.8c0.54,6.68-3.49,22.25-7.37,28.52c-4.15-2.39-8.31-4.79-12.58-7.24
			c2.14-2.44,3.06-5.29,3.02-8.44c-0.04-3.14-1.22-5.88-3.24-8.43C159.26,99.74,165.92,98.28,172.64,96.8z"/>
		<path class="st0" d="M135.27,128.17c4.18-1.28,8.14-2.42,12.04-3.73c1.18-0.4,1.91-0.14,2.8,0.6c3.06,2.56,6.2,5.03,9.3,7.53
			c0.27,0.21,0.5,0.47,0.83,0.78c-5.03,6.16-10.76,11.45-17.85,15.53C140.01,141.96,137.66,135.12,135.27,128.17z"/>
		<path class="st0" d="M77.46,145.58c11.91-3.71,23.73-7.4,35.54-11.08c0.06,0.08,0.11,0.16,0.17,0.25
			c-0.48,0.73-0.95,1.46-1.44,2.18c-4.18,6.01-8.38,12.01-12.55,18.04c-0.38,0.55-0.68,0.77-1.4,0.58
			c-7.26-1.95-13.84-5.31-20.01-9.55C77.71,145.95,77.68,145.88,77.46,145.58z"/>
		<path class="st0" d="M112.85,157.32c1.04-2.73,1.99-5.34,3.02-7.91c2.23-5.58,4.49-11.15,6.78-16.71
			c0.19-0.45,0.72-0.88,1.19-1.07c1.14-0.45,2.34-0.75,3.66-1.15c0.19,2.08,0.37,4.09,0.55,6.1c0.47,5.51,0.91,11.03,1.42,16.54
			c0.09,0.99-0.1,1.43-1.12,1.73c-4.5,1.31-9.08,2.17-13.76,2.47C114.08,157.34,113.56,157.32,112.85,157.32z"/>
		<path class="st0" d="M78.47,115.26c-1.75,3.8-1.86,7.36-0.11,11.03c-1.56,0.41-3.03,0.81-4.51,1.19
			c-3.59,0.94-7.17,1.88-10.77,2.79c-0.31,0.08-0.88-0.04-1-0.25c-1.81-3.19-3.56-6.41-5.47-9.91
			C64.05,118.46,71.13,116.89,78.47,115.26z"/>
		<path class="st0" d="M75.98,98.54c-1.1,2.54-2.1,4.87-3.15,7.18c-0.11,0.25-0.52,0.45-0.82,0.51c-6.03,1.18-12.06,2.34-18.28,3.53
			c-0.48-2.44-0.96-4.84-1.46-7.36C60.22,101.11,68,99.85,75.98,98.54z"/>
		<path class="st0" d="M129.19,122.34c-6.45,1.71-12.71,3.37-19.26,5.1c1.86-3.05,2.28-6.14,1.66-9.45
			c4.64-1.07,9.21-2.13,13.92-3.22C125.88,117.63,126.86,120.21,129.19,122.34z"/>
		<path class="st0" d="M51.79,98.39c0-1.95,0.02-3.67-0.01-5.38c-0.01-0.6,0.25-0.74,0.78-0.81c5.32-0.66,10.64-1.35,15.95-2.03
			c1.16-0.15,2.45-0.68,3.44-0.33c0.88,0.31,1.36,1.64,2.11,2.44c0.79,0.84,1.7,1.58,2.71,2.51C68.52,95.98,60.33,97.16,51.79,98.39
			z"/>
		<path class="st0" d="M85.76,119.87c-0.58,0-1.43,0-2.28,0c-0.75-5.53,4.38-12.04,9.89-12.5c2.11-0.18,4.04,0.47,5.72,1.7
			c3.34,2.45,5.12,5.81,5.67,10.06c-1.96,0-3.8,0-5.75,0c-0.2-0.55-0.35-1.28-0.72-1.87c-0.77-1.24-1.47-2.62-2.54-3.57
			c-2.71-2.44-6.13-1.85-7.93,1.32C86.98,116.47,86.48,118.13,85.76,119.87z"/>
		<path class="st0" d="M104.78,123.08c-0.31,3.91-1.6,7.28-4.58,9.8c-4.11,3.49-9.36,3.11-12.99-0.88
			c-2.02-2.21-3.09-4.49-3.77-8.11c0.83-0.12,1.67-0.25,2.43-0.36c0.65,1.36,1.16,2.75,1.95,3.97c0.62,0.95,1.47,1.84,2.41,2.48
			c1.95,1.35,4.25,1.03,6.03-0.65c1.54-1.46,2.27-3.32,2.66-5.35c0.05-0.27,0.1-0.54,0.16-0.9
			C100.95,123.08,102.81,123.08,104.78,123.08z"/>
		<path class="st0" d="M100.55,101.12c-1.62,0.22-3.15,0.45-4.68,0.6c-0.28,0.03-0.74-0.22-0.88-0.47
			c-2.27-4.05-4.5-8.12-6.74-12.19c-0.05-0.08-0.05-0.19-0.1-0.41c1.19-0.09,2.34-0.18,3.5-0.26c2.09-0.15,4.19-0.33,6.28-0.44
			c0.3-0.02,0.73,0.2,0.9,0.45c1.13,1.74,1.98,3.52,1.78,5.75C100.39,96.41,100.55,98.69,100.55,101.12z"/>
		<path class="st0" d="M132.61,113.07c-0.51-4.13,2.56-10.01,6.2-11.82c2.8-1.39,5.48-1.06,7.95,0.8c2.07,1.57,3.09,3.77,3.54,6.35
			c-1.31,0.34-2.52,0.66-3.69,0.96c-0.51-0.96-0.91-1.91-1.5-2.74c-1.99-2.84-5.36-2.86-7.22,0.08c-0.84,1.32-1.14,2.98-1.74,4.46
			c-0.14,0.35-0.43,0.74-0.76,0.88C134.5,112.45,133.55,112.74,132.61,113.07z"/>
		<path class="st0" d="M132.8,116.26c1.13-0.57,2.2-1.1,3.26-1.64c0.45,0.9,0.79,1.8,1.32,2.57c1.81,2.63,4.92,2.75,7,0.31
			c1.18-1.38,1.77-3,2.07-4.77c0.04-0.26,0.21-0.65,0.4-0.7c1.11-0.34,2.24-0.59,3.49-0.91c-0.18,3.79-1.37,6.97-3.95,9.6
			c-1.33,1.35-2.9,2.21-4.75,2.52c-3.74,0.62-7.54-2.03-8.61-5.98C132.95,116.97,132.89,116.67,132.8,116.26z"/>
		<path class="st0" d="M145.84,94.26c-3.69,0.52-7.15,1.01-10.7,1.51c0-3.36,0-6.58,0-9.9c1.79-0.13,3.57-0.26,5.34-0.36
			c0.19-0.01,0.48,0.15,0.57,0.31C142.63,88.56,144.18,91.31,145.84,94.26z"/>
		<path class="st0" d="M102.26,61.24c0.01,1.94-0.46,3.46-1.54,4.76c-2.43,2.92-6.63,2.58-8.46-0.77c-1.49-2.72-1.42-5.52,0.29-8.13
			c2.02-3.09,6.09-3.11,8.25-0.12C101.76,58.33,102.31,59.83,102.26,61.24z M92.51,61.32c0,0.14-0.01,0.28,0,0.41
			c0.18,1.99,1.74,3.55,3.35,3.35c1.59-0.19,2.88-1.65,3.04-3.43c0.15-1.72-0.92-3.49-2.38-3.94C94.51,57.08,92.49,58.9,92.51,61.32
			z"/>
		<path class="st0" d="M84.61,91.4c-2.39,0.6-4.39,0.1-5.94-1.64c-1.48-1.68-1.66-3.68-0.76-5.7c0.91-2.07,2.59-3.23,4.84-3.3
			c1.33-0.04,2.52,0.53,3.57,1.42c0.37,0.31,0.95,0.49,1.43,0.51c1.37,0.05,2.75-0.04,4.13-0.04c1.59,0.01,2.86,0.73,4.26,1.95
			c-3.32,0.14-6.33,0.3-9.34,0.38c-0.3,0.01-0.68-0.37-0.92-0.66c-1.34-1.58-3.54-1.76-5.02-0.36c-1.46,1.37-1.4,3.67,0.17,5.01
			c0.4,0.34,0.97,0.72,1.44,0.7C83.73,89.6,84.1,90.42,84.61,91.4z"/>
		<path class="st0" d="M84.69,95.81c1.27,2.3,2.59,4.69,4,7.24c-3.05,0.54-5.99,1.06-9.15,1.61c0.48-1.22,0.88-2.26,1.3-3.29
			c0.54-1.33,1.17-2.64,1.64-4C82.84,96.36,83.38,95.74,84.69,95.81z"/>
		<path class="st0" d="M138.79,70.76c4.73-1.08,5.8-2.2,6.57-6.9c0.38,3.87,2.03,6.55,6.38,6.84c-4.24,0.24-6.02,2.72-6.44,6.62
			C144.94,73.32,142.96,70.97,138.79,70.76z"/>
		<path class="st0" d="M76.03,64.69c0.82,3.56,1.06,3.83,4.26,4.99c-0.85,0.47-2.1,0.85-2.87,1.68c-0.77,0.82-1.06,2.08-1.44,2.89
			c-0.9-3.23-1.44-3.81-4.68-4.46C74.37,69.22,75.83,67.5,76.03,64.69z"/>
		<path class="st0" d="M131.69,81.04c1.85,0,3.72-0.15,5.54,0.07c0.76,0.09,1.42,0.96,2.13,1.48c-0.05,0.09-0.11,0.18-0.16,0.27
			c-1.94,0.1-3.88,0.23-5.83,0.25c-0.33,0-0.68-0.45-0.98-0.75c-0.28-0.29-0.5-0.64-0.75-0.96
			C131.66,81.28,131.67,81.16,131.69,81.04z"/>
		<path class="st0" d="M81.34,55.66c0.68,0.75,1.36,1.51,2.13,2.37c-0.74,0.79-1.48,1.57-2.24,2.38c-0.77-0.86-1.5-1.68-2.19-2.45
			C79.69,57.31,80.47,56.53,81.34,55.66z"/>
		<path class="st0" d="M140.84,79.74c3.95,0.18,6.53,3.54,5.17,6.55C144.67,83.87,143.51,81.37,140.84,79.74z"/>
		<path class="st0" d="M69.67,78.95c-0.4,0.36-0.7,0.63-1.06,0.95c-0.31-0.35-0.58-0.66-0.92-1.05c0.31-0.23,0.64-0.47,1.06-0.78
			C68.96,78.27,69.27,78.56,69.67,78.95z"/>
		<path class="st0" d="M125.97,64.48c-0.02,1.14-1.02,2.13-2.13,2.08c-1.12-0.04-2.03-0.98-2.01-2.08c0.01-1.14,1.01-2.11,2.13-2.08
			C125.08,62.44,125.99,63.39,125.97,64.48z"/>
		<path class="st0" d="M116.43,64.51c0,1.07-0.99,2.03-2.08,2.03c-1.05,0-1.97-0.92-1.99-1.98c-0.02-1.14,0.96-2.15,2.06-2.13
			C115.5,62.45,116.44,63.42,116.43,64.51z"/>
	</g>
	<g>
		<path class="st0" d="M214.99,52.73h1.13v0.48l6.95,6.78v10.98h-8.08v6.38h2.83v0.49l6.95,6.78v10.9h-20.68l-6.95-6.78h-0.48V30.84
			h21.16v0.48l6.95,6.78v10.98h-9.77V52.73z M206.43,78.98v-16.4h8.08v-8.24h-8.08V40.7h9.77v-8.24h-17.93v54.68h17.93v-8.16H206.43
			z"/>
		<path class="st0" d="M251.33,69.61l6.95,6.78v10.98c0,1.08-0.22,2.11-0.65,3.11c-0.43,1-1.02,1.87-1.78,2.63
			c-0.75,0.75-1.63,1.35-2.63,1.78c-1,0.43-2.03,0.65-3.11,0.65h-8.24c-2.32,0-4.25-0.78-5.82-2.34l-5.73-5.57
			c-1.24-0.75-2.23-1.76-2.99-3.03c-0.75-1.26-1.13-2.68-1.13-4.24V39.32c0-1.18,0.22-2.29,0.65-3.31c0.43-1.02,1.04-1.91,1.82-2.66
			c0.78-0.75,1.68-1.36,2.71-1.82c1.02-0.46,2.13-0.69,3.31-0.69h8.24c1.56,0,2.96,0.36,4.2,1.09c1.24,0.73,2.23,1.71,2.99,2.95
			l5.73,5.57c1.62,1.61,2.42,3.58,2.42,5.9v10.9h-10.9l-2.75-2.66v14.54h6.7V69.61z M249.71,70.74h-8.16c0,0.54,0.04,1.27,0.12,2.18
			c0.08,0.92,0.08,1.82,0,2.71c-0.08,0.89-0.31,1.67-0.69,2.34c-0.38,0.67-1.02,1.01-1.94,1.01c-0.81,0-1.51-0.19-2.1-0.57
			c-0.59-0.38-0.89-1.02-0.89-1.94V43.12c0-0.65,0.24-1.21,0.73-1.7c0.48-0.48,1.05-0.73,1.7-0.73c1.13,0,1.92,0.28,2.38,0.85
			c0.46,0.57,0.74,1.27,0.85,2.1c0.11,0.84,0.11,1.72,0,2.67c-0.11,0.94-0.16,1.79-0.16,2.54h8.16v-9.53c0-1.88-0.66-3.5-1.98-4.85
			c-1.32-1.35-2.92-2.02-4.81-2.02h-8.24c-1.89,0-3.5,0.67-4.85,2.02c-1.35,1.35-2.02,2.96-2.02,4.85v41.03
			c0,1.89,0.67,3.49,2.02,4.81c1.35,1.32,2.96,1.98,4.85,1.98h8.24c1.83,0,3.42-0.67,4.76-2.02c1.35-1.35,2.02-2.93,2.02-4.76V70.74
			z"/>
		<path class="st0" d="M264.25,87.62c-1.24-0.7-2.25-1.71-3.03-3.03c-0.78-1.32-1.17-2.76-1.17-4.32V39.32
			c0-1.18,0.22-2.29,0.65-3.31c0.43-1.02,1.04-1.91,1.82-2.66c0.78-0.75,1.68-1.36,2.71-1.82c1.02-0.46,2.13-0.69,3.31-0.69h8.16
			c1.56,0,2.97,0.38,4.24,1.13c1.26,0.75,2.27,1.75,3.03,2.99l5.65,5.49c0.75,0.75,1.36,1.63,1.82,2.62c0.46,1,0.69,2.09,0.69,3.27
			V87.3c0,1.13-0.22,2.19-0.65,3.19c-0.43,1-1.02,1.87-1.78,2.63c-0.75,0.75-1.63,1.35-2.63,1.78c-1,0.43-2.06,0.65-3.19,0.65h-8.16
			c-2.26,0-4.17-0.78-5.73-2.34L264.25,87.62z M283.55,39.32c0-1.88-0.67-3.5-2.02-4.85c-1.35-1.35-2.96-2.02-4.84-2.02h-8.16
			c-1.89,0-3.5,0.67-4.85,2.02c-1.35,1.35-2.02,2.96-2.02,4.85v40.95c0,1.89,0.67,3.5,2.02,4.85c1.35,1.35,2.96,2.02,4.85,2.02h8.16
			c1.88,0,3.5-0.67,4.84-2.02c1.35-1.35,2.02-2.96,2.02-4.85V39.32z M275.4,76.47c0,0.7-0.23,1.28-0.7,1.74
			c-0.46,0.46-1.05,0.69-1.76,0.69h-0.57c-0.71,0-1.3-0.23-1.76-0.69c-0.46-0.46-0.7-1.04-0.7-1.74V43.12c0-0.7,0.23-1.29,0.7-1.78
			c0.46-0.48,1.05-0.73,1.76-0.73h0.57c0.71,0,1.3,0.24,1.76,0.73c0.47,0.48,0.7,1.08,0.7,1.78V76.47z"/>
		<path class="st0" d="M312.3,56.36c0,0.81,0.24,1.61,0.73,2.42c0.91,0.92,1.78,1.86,2.58,2.83l3.31,3.31l-0.16-0.16l0.57,0.57
			l0.16,0.08l0.73,0.65c1.56,1.51,2.91,3.19,4.04,5.05c1.13,1.86,1.7,4,1.7,6.42v9.85c0,1.08-0.22,2.11-0.65,3.11
			c-0.43,1-1.02,1.87-1.78,2.63c-0.75,0.75-1.63,1.35-2.62,1.78c-1,0.43-2.03,0.65-3.11,0.65h-8.24c-2.32,0-4.23-0.75-5.74-2.26
			l-5.82-5.65c-1.24-0.75-2.22-1.76-2.95-3.03c-0.73-1.26-1.09-2.68-1.09-4.24V69.12h11.39v0.48l2.26,2.18
			c-0.05-0.54-0.26-1.12-0.61-1.74c-0.35-0.62-0.78-1.24-1.29-1.86c-0.51-0.62-1.06-1.22-1.66-1.82c-0.59-0.59-1.18-1.18-1.78-1.78
			c-0.97-0.86-1.95-1.79-2.95-2.79c-1-1-1.9-2.06-2.71-3.19c-0.81-1.13-1.45-2.34-1.94-3.63c-0.48-1.29-0.73-2.72-0.73-4.28V39.32
			c0-2.37,0.79-4.37,2.38-6.02c1.59-1.64,3.59-2.46,6.02-2.46h8.24c1.56,0,2.96,0.36,4.2,1.09c1.24,0.73,2.23,1.71,2.99,2.95
			l5.73,5.57c1.62,1.61,2.42,3.58,2.42,5.9v10.9h-10.9l-2.75-2.66V56.36z M303.74,43.12c0-0.7,0.25-1.28,0.77-1.74
			c0.51-0.46,1.09-0.69,1.74-0.69c1.08,0,1.83,0.28,2.26,0.85c0.43,0.57,0.7,1.28,0.81,2.14c0.11,0.86,0.12,1.76,0.04,2.71
			c-0.08,0.94-0.12,1.76-0.12,2.46h8.16v-9.53c0-1.88-0.66-3.5-1.98-4.85c-1.32-1.35-2.92-2.02-4.81-2.02h-8.24
			c-1.89,0-3.49,0.67-4.81,2.02c-1.32,1.35-1.98,2.96-1.98,4.85v11.39c0,1.67,0.34,3.2,1.01,4.6c0.67,1.4,1.52,2.69,2.54,3.88
			c1.02,1.19,2.11,2.3,3.27,3.35c1.16,1.05,2.25,2.09,3.27,3.11c1.02,1.02,1.87,2.05,2.54,3.07c0.67,1.02,1.01,2.13,1.01,3.31
			c0,0.54,0.03,1.2,0.08,1.98c0.05,0.78,0.03,1.53-0.08,2.26c-0.11,0.73-0.34,1.36-0.69,1.9c-0.35,0.54-0.96,0.81-1.82,0.81
			c-1.08,0-1.83-0.3-2.26-0.89c-0.43-0.59-0.7-1.3-0.81-2.14c-0.11-0.83-0.12-1.72-0.04-2.66c0.08-0.94,0.12-1.79,0.12-2.54h-8.16
			v9.61c0,1.89,0.66,3.49,1.98,4.81c1.32,1.32,2.92,1.98,4.81,1.98h8.24c1.83,0,3.42-0.67,4.76-2.02c1.35-1.35,2.02-2.93,2.02-4.76
			V70.5c0-1.67-0.34-3.2-1.01-4.6c-0.67-1.4-1.52-2.69-2.54-3.88c-1.02-1.18-2.63-2.8-4.81-4.85c-2.18-2.05-3.61-3.58-4.28-4.6
			c-0.67-1.02-1.01-2.1-1.01-3.23V43.12z M318.93,64.93l0.48,0.4h-0.08L318.93,64.93z M319.41,65.33c0.05,0,0.08,0.03,0.08,0.08
			L319.41,65.33z"/>
		<path class="st0" d="M353.66,31.33l6.95,6.78v49.27c0,2.31-0.78,4.25-2.34,5.82c-1.56,1.56-3.5,2.34-5.82,2.34h-8.56
			c-2.32,0-4.25-0.78-5.82-2.34l-5.73-5.57c-1.24-0.75-2.24-1.76-2.99-3.03c-0.75-1.26-1.13-2.68-1.13-4.24V30.84h11.39v0.48
			l2.66,2.58v-3.07h11.39V31.33z M352.04,32.46h-8.16v44.02c0,0.92-0.31,1.56-0.93,1.94c-0.62,0.38-1.31,0.57-2.06,0.57
			c-1.94,0.22-2.91-0.73-2.91-2.83c0-2.1,0-3.69,0-4.76V32.46h-8.16v47.89c0,1.89,0.67,3.49,2.02,4.81
			c1.35,1.32,2.96,1.98,4.85,1.98h8.56c1.88,0,3.49-0.66,4.81-1.98c1.32-1.32,1.98-2.92,1.98-4.81V32.46z"/>
		<path class="st0" d="M388.87,30.84v0.48l6.95,6.78v57.42h-10.9l-3.55-3.47v3.47h-10.9l-6.95-6.78h-0.48V30.84h10.9l0.16,0.65
			l3.39,3.23v-3.88H388.87z M379.1,32.46v17.85l-6.3-17.85h-8.16v54.68h8.16V52.16c0.43,1.29,0.97,2.71,1.62,4.24
			c0.65,1.53,1.28,3.1,1.9,4.68c0.62,1.59,1.18,3.15,1.7,4.68s0.88,2.95,1.09,4.24c0.22,1.18,0.34,2.5,0.36,3.96
			c0.03,1.45,0.01,2.95-0.04,4.48c-0.05,1.53-0.12,3.06-0.2,4.56c-0.08,1.51-0.12,2.88-0.12,4.12h8.16V32.46H379.1z"/>
	</g>
	<g>
		<path class="st0" d="M217.3,101.46v0.42l6.02,5.88v9.45h-5.39v40.32h-9.52l-6.02-5.88h-0.42v-35.42l-4.97-4.9h-0.42v-9.87H217.3z
			 M197.98,102.86v7.07h5.39v40.32h7.14v-40.32h5.39v-7.07H197.98z"/>
		<path class="st0" d="M225.35,151.66h-0.42v-50.19h14.42c1.35,0,2.58,0.33,3.67,0.98c1.1,0.65,1.97,1.52,2.62,2.59l4.9,4.76
			c0.65,0.65,1.18,1.41,1.58,2.28s0.59,1.81,0.59,2.83v18.9c0,1.35-0.3,2.58-0.91,3.67c-0.61,1.1-1.49,1.95-2.66,2.56
			c0.61,2.8,1.26,5.75,1.96,8.85c0.7,3.1,1.35,5.99,1.96,8.65h-9.87l-2.38-2.31v2.31h-9.45L225.35,151.66z M245.3,108.81
			c0-1.63-0.58-3.03-1.75-4.2c-1.17-1.17-2.57-1.75-4.2-1.75h-13.02v47.39h7.07v-16.59h0.91l3.64,16.59h7.35l-3.78-17.01
			c1.12-0.42,2.03-1.14,2.73-2.17s1.05-2.15,1.05-3.36V108.81z M238.16,124.42c0,0.56-0.21,1.05-0.63,1.47s-0.91,0.63-1.47,0.63
			h-2.66v-16.59h2.66c0.61,0,1.11,0.22,1.5,0.67c0.4,0.44,0.59,0.95,0.59,1.5V124.42z"/>
		<path class="st0" d="M254.82,151.66h-0.42v-42.84c0-1.03,0.19-1.98,0.56-2.87c0.37-0.89,0.9-1.66,1.58-2.31
			c0.68-0.65,1.46-1.18,2.34-1.58c0.89-0.4,1.84-0.59,2.87-0.59h7.07c1.35,0,2.58,0.33,3.67,0.98c1.1,0.65,1.97,1.52,2.62,2.59
			l4.9,4.76c0.65,0.65,1.18,1.41,1.58,2.28s0.59,1.81,0.59,2.83v42.63h-9.52l-2.31-2.24v2.24h-9.52L254.82,151.66z M274.77,108.81
			c0-1.63-0.58-3.03-1.75-4.2c-1.17-1.17-2.57-1.75-4.2-1.75h-7.07c-1.63,0-3.03,0.58-4.2,1.75c-1.17,1.17-1.75,2.57-1.75,4.2v41.44
			h7.14v-16.59h4.76v16.59h7.07V108.81z M262.94,126.59V112.1c0-0.56,0.21-1.05,0.64-1.47c0.43-0.42,0.92-0.63,1.49-0.63h0.5
			c0.57,0,1.07,0.21,1.49,0.63c0.43,0.42,0.64,0.91,0.64,1.47v14.49H262.94z"/>
		<path class="st0" d="M305.36,135.06l6.02,5.88v9.52c0,0.93-0.19,1.83-0.56,2.7c-0.37,0.86-0.89,1.62-1.54,2.27
			c-0.65,0.65-1.41,1.17-2.28,1.54c-0.86,0.37-1.76,0.56-2.69,0.56h-7.14c-2.01,0-3.69-0.68-5.04-2.03l-4.97-4.83
			c-1.07-0.65-1.94-1.53-2.59-2.62c-0.65-1.1-0.98-2.32-0.98-3.67v-35.56c0-1.03,0.19-1.98,0.56-2.87c0.37-0.89,0.9-1.66,1.58-2.31
			c0.68-0.65,1.46-1.18,2.34-1.58c0.89-0.4,1.84-0.59,2.87-0.59h7.14c1.35,0,2.57,0.31,3.64,0.94c1.07,0.63,1.94,1.48,2.59,2.56
			l4.97,4.83c1.4,1.4,2.1,3.1,2.1,5.11v9.45h-9.45l-2.38-2.31v12.6h5.81V135.06z M303.96,136.04h-7.07c0,0.47,0.03,1.1,0.1,1.89
			c0.07,0.79,0.07,1.58,0,2.35c-0.07,0.77-0.27,1.45-0.59,2.03c-0.33,0.58-0.89,0.88-1.68,0.88c-0.7,0-1.31-0.16-1.82-0.49
			c-0.51-0.33-0.77-0.89-0.77-1.68V112.1c0-0.56,0.21-1.05,0.63-1.47c0.42-0.42,0.91-0.63,1.47-0.63c0.98,0,1.67,0.25,2.06,0.74
			c0.4,0.49,0.64,1.1,0.74,1.82c0.09,0.72,0.09,1.49,0,2.31c-0.09,0.82-0.14,1.55-0.14,2.21h7.07v-8.26c0-1.63-0.57-3.03-1.71-4.2
			c-1.14-1.17-2.53-1.75-4.17-1.75h-7.14c-1.63,0-3.03,0.58-4.2,1.75c-1.17,1.17-1.75,2.57-1.75,4.2v35.56
			c0,1.63,0.58,3.02,1.75,4.17c1.17,1.14,2.57,1.71,4.2,1.71h7.14c1.59,0,2.96-0.58,4.13-1.75c1.17-1.17,1.75-2.54,1.75-4.13V136.04
			z"/>
		<path class="st0" d="M322.86,101.88l1.54,1.54l0.49-1.96h10.15l-0.14,0.42l6.09,5.88l-7.49,28.21c0.61,1.68,1.24,3.43,1.89,5.25
			c0.65,1.82,1.32,3.66,2,5.53c0.68,1.87,1.34,3.72,2,5.57c0.65,1.84,1.26,3.58,1.82,5.21h-10.08l-2.24-2.17v2.17h-9.52l-6.02-5.88
			h-0.42v-50.19h9.94V101.88z M321.46,102.86h-7.14v47.39h7.14v-12.04l4.27,12.04h7.56l-7.21-20.23l7.21-27.16h-7.35l-4.48,16.8
			V102.86z"/>
		<path class="st0" d="M357.93,120.43h0.98v0.42l6.02,5.88v9.52h-7v5.53h2.45v0.42l6.02,5.88v9.45h-17.92l-6.02-5.88h-0.42v-50.19
			h18.34v0.42l6.02,5.88v9.52h-8.47V120.43z M350.51,143.18v-14.21h7v-7.14h-7V110h8.47v-7.14h-15.54v47.39h15.54v-7.07H350.51z"/>
		<path class="st0" d="M368.5,151.66h-0.42v-50.19h14.42c1.35,0,2.58,0.33,3.67,0.98c1.1,0.65,1.97,1.52,2.62,2.59l4.9,4.76
			c0.65,0.65,1.18,1.41,1.58,2.28s0.59,1.81,0.59,2.83v18.9c0,1.35-0.3,2.58-0.91,3.67c-0.61,1.1-1.49,1.95-2.66,2.56
			c0.61,2.8,1.26,5.75,1.96,8.85c0.7,3.1,1.35,5.99,1.96,8.65h-9.87l-2.38-2.31v2.31h-9.45L368.5,151.66z M388.45,108.81
			c0-1.63-0.58-3.03-1.75-4.2c-1.17-1.17-2.57-1.75-4.2-1.75h-13.02v47.39h7.07v-16.59h0.91l3.64,16.59h7.35l-3.78-17.01
			c1.12-0.42,2.03-1.14,2.73-2.17s1.05-2.15,1.05-3.36V108.81z M381.31,124.42c0,0.56-0.21,1.05-0.63,1.47s-0.91,0.63-1.47,0.63
			h-2.66v-16.59h2.66c0.61,0,1.11,0.22,1.5,0.67c0.4,0.44,0.59,0.95,0.59,1.5V124.42z"/>
	</g>
</g>
</svg>
